<svg width="40" height="40" viewBox="0 0 40 40" fill="none" xmlns="http://www.w3.org/2000/svg">
<g id="account_circle">
<mask id="mask0_335_94" style="mask-type:alpha" maskUnits="userSpaceOnUse" x="0" y="0" width="40" height="40">
<rect id="Bounding box" width="40" height="40" fill="#D9D9D9"/>
</mask>
<g mask="url(#mask0_335_94)">
<path id="account_circle_2" d="M9.74967 28.5002C11.1663 27.4168 12.7497 26.5627 14.4997 25.9377C16.2497 25.3127 18.083 25.0002 19.9997 25.0002C21.9163 25.0002 23.7497 25.3127 25.4997 25.9377C27.2497 26.5627 28.833 27.4168 30.2497 28.5002C31.2219 27.3613 31.9788 26.0696 32.5205 24.6252C33.0622 23.1807 33.333 21.6391 33.333 20.0002C33.333 16.3057 32.0344 13.1599 29.4372 10.5627C26.84 7.96544 23.6941 6.66683 19.9997 6.66683C16.3052 6.66683 13.1594 7.96544 10.5622 10.5627C7.96495 13.1599 6.66634 16.3057 6.66634 20.0002C6.66634 21.6391 6.93717 23.1807 7.47884 24.6252C8.02051 26.0696 8.77745 27.3613 9.74967 28.5002ZM19.9997 21.6668C18.3608 21.6668 16.9788 21.1043 15.8538 19.9793C14.7288 18.8543 14.1663 17.4724 14.1663 15.8335C14.1663 14.1946 14.7288 12.8127 15.8538 11.6877C16.9788 10.5627 18.3608 10.0002 19.9997 10.0002C21.6386 10.0002 23.0205 10.5627 24.1455 11.6877C25.2705 12.8127 25.833 14.1946 25.833 15.8335C25.833 17.4724 25.2705 18.8543 24.1455 19.9793C23.0205 21.1043 21.6386 21.6668 19.9997 21.6668ZM19.9997 36.6668C17.6941 36.6668 15.5275 36.2293 13.4997 35.3543C11.4719 34.4793 9.70801 33.2918 8.20801 31.7918C6.70801 30.2918 5.52051 28.5279 4.64551 26.5002C3.77051 24.4724 3.33301 22.3057 3.33301 20.0002C3.33301 17.6946 3.77051 15.5279 4.64551 13.5002C5.52051 11.4724 6.70801 9.7085 8.20801 8.2085C9.70801 6.7085 11.4719 5.521 13.4997 4.646C15.5275 3.771 17.6941 3.3335 19.9997 3.3335C22.3052 3.3335 24.4719 3.771 26.4997 4.646C28.5275 5.521 30.2913 6.7085 31.7913 8.2085C33.2913 9.7085 34.4788 11.4724 35.3538 13.5002C36.2288 15.5279 36.6663 17.6946 36.6663 20.0002C36.6663 22.3057 36.2288 24.4724 35.3538 26.5002C34.4788 28.5279 33.2913 30.2918 31.7913 31.7918C30.2913 33.2918 28.5275 34.4793 26.4997 35.3543C24.4719 36.2293 22.3052 36.6668 19.9997 36.6668Z" fill="#B79681"/>
</g>
</g>
</svg>
