<svg width="18" height="19" viewBox="0 0 18 19" fill="none" xmlns="http://www.w3.org/2000/svg">
<g id="dollar-sign" clip-path="url(#clip0_452_91)">
<path id="Vector" d="M9 0.791668V18.2083" stroke="black" stroke-width="2" stroke-linecap="round" stroke-linejoin="round"/>
<path id="Vector_2" d="M12.75 3.95833H7.125C6.42881 3.95833 5.76113 4.25026 5.26884 4.76989C4.77656 5.28952 4.5 5.99429 4.5 6.72917C4.5 7.46404 4.77656 8.16881 5.26884 8.68844C5.76113 9.20807 6.42881 9.5 7.125 9.5H10.875C11.5712 9.5 12.2389 9.79192 12.7312 10.3116C13.2234 10.8312 13.5 11.536 13.5 12.2708C13.5 13.0057 13.2234 13.7105 12.7312 14.2301C12.2389 14.7497 11.5712 15.0417 10.875 15.0417H4.5" stroke="black" stroke-width="2" stroke-linecap="round" stroke-linejoin="round"/>
</g>
<defs>
<clipPath id="clip0_452_91">
<rect width="18" height="19" fill="white"/>
</clipPath>
</defs>
</svg>
